REM DIRINDEX 1\2\4\18,1\2\4\19,1\2\5\20,1\2\5\21,1\2\6\22,1\2\6\23,1\2\7\24,1\2\7\25,1\2\8\26,1\2\8\27,1\2\9\28,1\2\9\29,1\2\10\30,1\3\11\31,1\3\11\32,1\3\11\33,1\3\11\34,1\3\11\35,1\3\12\36,1\3\12\37,1\3\12\38,1\3\12\39,1\3\12\40,1\3\13\41,1\3\13\42,1\3\13\43,1\3\13\44,1\3\13\45,1\3\14\46,1\3\14\47,1\3\14\48,1\3\14\49,1\3\15\50,1\3\15\51,1\3\15\52,1\3\15\53,1\3\15\54,1\3\16\55,1\3\16\56,1\3\16\57,1\3\16\58,1\3\16\59,1\3\17\60,1\3\17\61
REM DIRNAME "folder01","folder02","folder03","folder04","folder05","folder06","folder07","folder08","folder09","folder10","folder11","folder12","folder13","folder14","folder15","folder16","folder17","folder18","folder19","folder20","folder21","folder22","folder23","folder24","folder25","folder26","folder27","folder28","folder29","folder30","folder31","folder32","folder33","folder34","folder35","folder36","folder37","folder38","folder39","folder40","folder41","folder42","folder43","folder44","folder45","folder46","folder47","folder48","folder49","folder50","folder51","folder52","folder53","folder54","folder55","folder56","folder57","folder58","folder59","folder60","folder61"
TITLE ""
FILE "TOEIC LR Kinnojyukugo_05.mp3" MP3
  TRACK 01 AUDIO
    TITLE "0:"
    INDEX 01 00:00:00
  TRACK 02 AUDIO
    TITLE "41:cjc160_3129"
    INDEX 01 00:00:12
  TRACK 03 AUDIO
    TITLE "0:"
    INDEX 01 00:01:55
  TRACK 04 AUDIO
    TITLE "42:cjc160_3130"
    INDEX 01 00:02:17
  TRACK 05 AUDIO
    TITLE "0:"
    INDEX 01 00:03:46
  TRACK 06 AUDIO
    TITLE "43:cjc160_3131"
    INDEX 01 00:04:12
  TRACK 07 AUDIO
    TITLE "0:"
    INDEX 01 00:06:19
  TRACK 08 AUDIO
    TITLE "44:cjc160_3132"
    INDEX 01 00:06:58
  TRACK 09 AUDIO
    TITLE "0:"
    INDEX 01 00:08:65
  TRACK 10 AUDIO
    TITLE "45:cjc160_3133"
    INDEX 01 00:09:13
  TRACK 11 AUDIO
    TITLE "0:"
    INDEX 01 00:11:18
  TRACK 12 AUDIO
    TITLE "41:cjc160_3134"
    INDEX 01 00:12:19
  TRACK 13 AUDIO
    TITLE "0:"
    INDEX 01 00:13:74
  TRACK 14 AUDIO
    TITLE "42:cjc160_3135"
    INDEX 01 00:14:40
  TRACK 15 AUDIO
    TITLE "0:"
    INDEX 01 00:15:63
  TRACK 16 AUDIO
    TITLE "43:cjc160_3136"
    INDEX 01 00:16:27
  TRACK 17 AUDIO
    TITLE "0:"
    INDEX 01 00:17:70
  TRACK 18 AUDIO
    TITLE "44:cjc160_3137"
    INDEX 01 00:18:32
  TRACK 19 AUDIO
    TITLE "0:"
    INDEX 01 00:20:70
  TRACK 20 AUDIO
    TITLE "45:cjc160_3138"
    INDEX 01 00:21:20
  TRACK 21 AUDIO
    TITLE "0:"
    INDEX 01 00:23:56
  TRACK 22 AUDIO
    TITLE "41:cjc160_3139"
    INDEX 01 00:24:58
  TRACK 23 AUDIO
    TITLE "0:"
    INDEX 01 00:26:23
  TRACK 24 AUDIO
    TITLE "42:cjc160_3140"
    INDEX 01 00:26:63
  TRACK 25 AUDIO
    TITLE "0:"
    INDEX 01 00:28:34
  TRACK 26 AUDIO
    TITLE "43:cjc160_3141"
    INDEX 01 00:28:71
  TRACK 27 AUDIO
    TITLE "0:"
    INDEX 01 00:31:21
  TRACK 28 AUDIO
    TITLE "44:cjc160_3142"
    INDEX 01 00:31:62
  TRACK 29 AUDIO
    TITLE "0:"
    INDEX 01 00:34:17
  TRACK 30 AUDIO
    TITLE "45:cjc160_3143"
    INDEX 01 00:34:44
  TRACK 31 AUDIO
    TITLE "0:"
    INDEX 01 00:37:00
  TRACK 32 AUDIO
    TITLE "41:cjc160_3144"
    INDEX 01 00:37:74
  TRACK 33 AUDIO
    TITLE "0:"
    INDEX 01 00:39:32
  TRACK 34 AUDIO
    TITLE "42:cjc160_3145"
    INDEX 01 00:39:69
  TRACK 35 AUDIO
    TITLE "0:"
    INDEX 01 00:41:27
  TRACK 36 AUDIO
    TITLE "43:cjc160_3146"
    INDEX 01 00:41:66
  TRACK 37 AUDIO
    TITLE "0:"
    INDEX 01 00:43:45
  TRACK 38 AUDIO
    TITLE "44:cjc160_3147"
    INDEX 01 00:44:08
  TRACK 39 AUDIO
    TITLE "0:"
    INDEX 01 00:45:72
  TRACK 40 AUDIO
    TITLE "45:cjc160_3148"
    INDEX 01 00:46:22
  TRACK 41 AUDIO
    TITLE "0:"
    INDEX 01 00:48:13
  TRACK 42 AUDIO
    TITLE "41:cjc160_3149"
    INDEX 01 00:49:13
  TRACK 43 AUDIO
    TITLE "0:"
    INDEX 01 00:50:34
  TRACK 44 AUDIO
    TITLE "42:cjc160_3150"
    INDEX 01 00:50:71
  TRACK 45 AUDIO
    TITLE "0:"
    INDEX 01 00:53:73
  TRACK 46 AUDIO
    TITLE "43:cjc160_3151"
    INDEX 01 00:54:39
  TRACK 47 AUDIO
    TITLE "0:"
    INDEX 01 00:56:56
  TRACK 48 AUDIO
    TITLE "44:cjc160_3152"
    INDEX 01 00:57:22
  TRACK 49 AUDIO
    TITLE "0:"
    INDEX 01 00:59:17
  TRACK 50 AUDIO
    TITLE "45:cjc160_3153"
    INDEX 01 00:59:48
  TRACK 51 AUDIO
    TITLE "0:"
    INDEX 01 01:01:43
  TRACK 52 AUDIO
    TITLE "41:cjc160_3154"
    INDEX 01 01:02:45
  TRACK 53 AUDIO
    TITLE "0:"
    INDEX 01 01:04:49
  TRACK 54 AUDIO
    TITLE "42:cjc160_3155"
    INDEX 01 01:05:12
  TRACK 55 AUDIO
    TITLE "0:"
    INDEX 01 01:07:58
  TRACK 56 AUDIO
    TITLE "43:cjc160_3156"
    INDEX 01 01:08:20
  TRACK 57 AUDIO
    TITLE "0:"
    INDEX 01 01:11:65
  TRACK 58 AUDIO
    TITLE "44:cjc160_3157"
    INDEX 01 01:12:29
  TRACK 59 AUDIO
    TITLE "0:"
    INDEX 01 01:15:10
  TRACK 60 AUDIO
    TITLE "45:cjc160_3158"
    INDEX 01 01:15:38
  TRACK 61 AUDIO
    TITLE "0:"
    INDEX 01 01:18:16
  TRACK 62 AUDIO
    TITLE "41:cjc160_3159"
    INDEX 01 01:19:16
  TRACK 63 AUDIO
    TITLE "0:"
    INDEX 01 01:20:35
  TRACK 64 AUDIO
    TITLE "42:cjc160_3160"
    INDEX 01 01:20:70
  TRACK 65 AUDIO
    TITLE "0:"
    INDEX 01 01:22:28
  TRACK 66 AUDIO
    TITLE "43:cjc160_3161"
    INDEX 01 01:22:65
  TRACK 67 AUDIO
    TITLE "0:"
    INDEX 01 01:24:44
  TRACK 68 AUDIO
    TITLE "44:cjc160_3162"
    INDEX 01 01:25:07
  TRACK 69 AUDIO
    TITLE "0:"
    INDEX 01 01:26:65
  TRACK 70 AUDIO
    TITLE "45:cjc160_3163"
    INDEX 01 01:27:15
  TRACK 71 AUDIO
    TITLE "0:"
    INDEX 01 01:28:72
  TRACK 72 AUDIO
    TITLE "41:cjc160_3164"
    INDEX 01 01:29:73
  TRACK 73 AUDIO
    TITLE "0:"
    INDEX 01 01:31:13
  TRACK 74 AUDIO
    TITLE "42:cjc160_3165"
    INDEX 01 01:31:52
  TRACK 75 AUDIO
    TITLE "0:"
    INDEX 01 01:33:57
  TRACK 76 AUDIO
    TITLE "43:cjc160_3166"
    INDEX 01 01:34:23
  TRACK 77 AUDIO
    TITLE "0:"
    INDEX 01 01:37:10
  TRACK 78 AUDIO
    TITLE "44:cjc160_3167"
    INDEX 01 01:37:57
  TRACK 79 AUDIO
    TITLE "0:"
    INDEX 01 01:40:26
  TRACK 80 AUDIO
    TITLE "45:cjc160_3168"
    INDEX 01 01:40:49
  TRACK 81 AUDIO
    TITLE "0:"
    INDEX 01 01:43:18
  TRACK 82 AUDIO
    TITLE "41:cjc160_3169"
    INDEX 01 01:44:18
  TRACK 83 AUDIO
    TITLE "0:"
    INDEX 01 01:45:48
  TRACK 84 AUDIO
    TITLE "42:cjc160_3170"
    INDEX 01 01:46:11
  TRACK 85 AUDIO
    TITLE "0:"
    INDEX 01 01:47:49
  TRACK 86 AUDIO
    TITLE "43:cjc160_3171"
    INDEX 01 01:48:10
  TRACK 87 AUDIO
    TITLE "0:"
    INDEX 01 01:51:14
  TRACK 88 AUDIO
    TITLE "44:cjc160_3172"
    INDEX 01 01:51:57
  TRACK 89 AUDIO
    TITLE "0:"
    INDEX 01 01:54:26
  TRACK 90 AUDIO
    TITLE "45:cjc160_3173"
    INDEX 01 01:54:49
  TRACK 91 AUDIO
    TITLE "0:"
    INDEX 01 01:57:18
  TRACK 92 AUDIO
    TITLE "41:cjc160_3174"
    INDEX 01 01:58:18
  TRACK 93 AUDIO
    TITLE "0:"
    INDEX 01 01:59:31
  TRACK 94 AUDIO
    TITLE "42:cjc160_3175"
    INDEX 01 01:59:68
  TRACK 95 AUDIO
    TITLE "0:"
    INDEX 01 02:01:28
  TRACK 96 AUDIO
    TITLE "43:cjc160_3176"
    INDEX 01 02:01:61
  TRACK 97 AUDIO
    TITLE "0:"
    INDEX 01 02:04:26
  TRACK 98 AUDIO
    TITLE "44:cjc160_3177"
    INDEX 01 02:04:63
  TRACK 99 AUDIO
    TITLE "0:"
    INDEX 01 02:07:11
  TRACK 100 AUDIO
    TITLE "45:cjc160_3178"
    INDEX 01 02:07:44
  TRACK 101 AUDIO
    TITLE "0:"
    INDEX 01 02:09:67
  TRACK 102 AUDIO
    TITLE "41:cjc160_3179"
    INDEX 01 02:11:03
  TRACK 103 AUDIO
    TITLE "0:"
    INDEX 01 02:13:10
  TRACK 104 AUDIO
    TITLE "42:cjc160_3180"
    INDEX 01 02:13:51
  TRACK 105 AUDIO
    TITLE "0:"
    INDEX 01 02:15:67
  TRACK 106 AUDIO
    TITLE "43:cjc160_3181"
    INDEX 01 02:16:31
  TRACK 107 AUDIO
    TITLE "0:"
    INDEX 01 02:19:28
  TRACK 108 AUDIO
    TITLE "44:cjc160_3182"
    INDEX 01 02:19:65
  TRACK 109 AUDIO
    TITLE "0:"
    INDEX 01 02:22:36
  TRACK 110 AUDIO
    TITLE "45:cjc160_3183"
    INDEX 01 02:22:61
  TRACK 111 AUDIO
    TITLE "0:"
    INDEX 01 02:25:34
  TRACK 112 AUDIO
    TITLE "41:cjc160_3184"
    INDEX 01 02:26:36
  TRACK 113 AUDIO
    TITLE "0:"
    INDEX 01 02:27:64
  TRACK 114 AUDIO
    TITLE "42:cjc160_3185"
    INDEX 01 02:28:27
  TRACK 115 AUDIO
    TITLE "0:"
    INDEX 01 02:30:16
  TRACK 116 AUDIO
    TITLE "43:cjc160_3186"
    INDEX 01 02:30:57
  TRACK 117 AUDIO
    TITLE "0:"
    INDEX 01 02:33:02
  TRACK 118 AUDIO
    TITLE "44:cjc160_3187"
    INDEX 01 02:33:40
  TRACK 119 AUDIO
    TITLE "0:"
    INDEX 01 02:35:40
  TRACK 120 AUDIO
    TITLE "45:cjc160_3188"
    INDEX 01 02:35:66
  TRACK 121 AUDIO
    TITLE "0:"
    INDEX 01 02:37:65
  TRACK 122 AUDIO
    TITLE "41:cjc160_3189"
    INDEX 01 02:38:64
  TRACK 123 AUDIO
    TITLE "0:"
    INDEX 01 02:41:06
  TRACK 124 AUDIO
    TITLE "42:cjc160_3190"
    INDEX 01 02:41:41
  TRACK 125 AUDIO
    TITLE "0:"
    INDEX 01 02:43:46
  TRACK 126 AUDIO
    TITLE "43:cjc160_3191"
    INDEX 01 02:44:12
  TRACK 127 AUDIO
    TITLE "0:"
    INDEX 01 02:46:32
  TRACK 128 AUDIO
    TITLE "44:cjc160_3192"
    INDEX 01 02:47:01
  TRACK 129 AUDIO
    TITLE "0:"
    INDEX 01 02:49:17
  TRACK 130 AUDIO
    TITLE "45:cjc160_3193"
    INDEX 01 02:49:43
  TRACK 131 AUDIO
    TITLE "0:"
    INDEX 01 02:51:59
  TRACK 132 AUDIO
    TITLE "41:cjc160_3194"
    INDEX 01 02:52:70
  TRACK 133 AUDIO
    TITLE "0:"
    INDEX 01 02:55:20
  TRACK 134 AUDIO
    TITLE "42:cjc160_3195"
    INDEX 01 02:55:57
  TRACK 135 AUDIO
    TITLE "0:"
    INDEX 01 02:56:72
  TRACK 136 AUDIO
    TITLE "43:cjc160_3196"
    INDEX 01 02:57:36
  TRACK 137 AUDIO
    TITLE "0:"
    INDEX 01 02:59:25
  TRACK 138 AUDIO
    TITLE "44:cjc160_3197"
    INDEX 01 02:59:68
  TRACK 139 AUDIO
    TITLE "0:"
    INDEX 01 03:04:09
  TRACK 140 AUDIO
    TITLE "45:cjc160_3198"
    INDEX 01 03:04:32
  TRACK 141 AUDIO
    TITLE "0:"
    INDEX 01 03:08:50
  TRACK 142 AUDIO
    TITLE "41:cjc160_3199"
    INDEX 01 03:09:53
  TRACK 143 AUDIO
    TITLE "0:"
    INDEX 01 03:10:68
  TRACK 144 AUDIO
    TITLE "42:cjc160_3200"
    INDEX 01 03:11:30
  TRACK 145 AUDIO
    TITLE "0:"
    INDEX 01 03:14:17
  TRACK 146 AUDIO
    TITLE "43:cjc160_3201"
    INDEX 01 03:14:56
  TRACK 147 AUDIO
    TITLE "0:"
    INDEX 01 03:16:36
  TRACK 148 AUDIO
    TITLE "44:cjc160_3202"
    INDEX 01 03:17:08
  TRACK 149 AUDIO
    TITLE "0:"
    INDEX 01 03:18:70
  TRACK 150 AUDIO
    TITLE "45:cjc160_3203"
    INDEX 01 03:19:20
  TRACK 151 AUDIO
    TITLE "0:"
    INDEX 01 03:21:07
  TRACK 152 AUDIO
    TITLE "41:cjc160_3204"
    INDEX 01 03:22:05
  TRACK 153 AUDIO
    TITLE "0:"
    INDEX 01 03:23:45
  TRACK 154 AUDIO
    TITLE "42:cjc160_3205"
    INDEX 01 03:24:08
  TRACK 155 AUDIO
    TITLE "0:"
    INDEX 01 03:26:67
  TRACK 156 AUDIO
    TITLE "43:cjc160_3206"
    INDEX 01 03:27:37
  TRACK 157 AUDIO
    TITLE "0:"
    INDEX 01 03:29:17
  TRACK 158 AUDIO
    TITLE "44:cjc160_3207"
    INDEX 01 03:29:56
  TRACK 159 AUDIO
    TITLE "0:"
    INDEX 01 03:31:66
  TRACK 160 AUDIO
    TITLE "45:cjc160_3208"
    INDEX 01 03:32:15
  TRACK 161 AUDIO
    TITLE "0:"
    INDEX 01 03:34:26
  TRACK 162 AUDIO
    TITLE "41:cjc160_3209"
    INDEX 01 03:35:25
  TRACK 163 AUDIO
    TITLE "0:"
    INDEX 01 03:36:60
  TRACK 164 AUDIO
    TITLE "42:cjc160_3210"
    INDEX 01 03:37:28
  TRACK 165 AUDIO
    TITLE "0:"
    INDEX 01 03:40:44
  TRACK 166 AUDIO
    TITLE "43:cjc160_3211"
    INDEX 01 03:41:08
  TRACK 167 AUDIO
    TITLE "0:"
    INDEX 01 03:43:36
  TRACK 168 AUDIO
    TITLE "44:cjc160_3212"
    INDEX 01 03:43:72
  TRACK 169 AUDIO
    TITLE "0:"
    INDEX 01 03:46:27
  TRACK 170 AUDIO
    TITLE "45:cjc160_3213"
    INDEX 01 03:46:52
  TRACK 171 AUDIO
    TITLE "0:"
    INDEX 01 03:49:06
  TRACK 172 AUDIO
    TITLE "41:cjc160_3214"
    INDEX 01 03:50:07
  TRACK 173 AUDIO
    TITLE "0:"
    INDEX 01 03:52:18
  TRACK 174 AUDIO
    TITLE "42:cjc160_3215"
    INDEX 01 03:52:57
  TRACK 175 AUDIO
    TITLE "0:"
    INDEX 01 03:54:52
  TRACK 176 AUDIO
    TITLE "43:cjc160_3216"
    INDEX 01 03:55:18
  TRACK 177 AUDIO
    TITLE "0:"
    INDEX 01 03:57:66
  TRACK 178 AUDIO
    TITLE "44:cjc160_3217"
    INDEX 01 03:58:30
  TRACK 179 AUDIO
    TITLE "0:"
    INDEX 01 04:00:68
  TRACK 180 AUDIO
    TITLE "45:cjc160_3218"
    INDEX 01 04:01:17
  TRACK 181 AUDIO
    TITLE "0:"
    INDEX 01 04:03:55
  TRACK 182 AUDIO
    TITLE "41:cjc160_3219"
    INDEX 01 04:04:54
  TRACK 183 AUDIO
    TITLE "0:"
    INDEX 01 04:06:14
  TRACK 184 AUDIO
    TITLE "42:cjc160_3220"
    INDEX 01 04:06:53
  TRACK 185 AUDIO
    TITLE "0:"
    INDEX 01 04:10:61
  TRACK 186 AUDIO
    TITLE "43:cjc160_3221"
    INDEX 01 04:11:31
  TRACK 187 AUDIO
    TITLE "0:"
    INDEX 01 04:13:51
  TRACK 188 AUDIO
    TITLE "44:cjc160_3222"
    INDEX 01 04:14:17
  TRACK 189 AUDIO
    TITLE "0:"
    INDEX 01 04:16:59
  TRACK 190 AUDIO
    TITLE "45:cjc160_3223"
    INDEX 01 04:17:10
  TRACK 191 AUDIO
    TITLE "0:"
    INDEX 01 04:19:56
  TRACK 192 AUDIO
    TITLE "41:cjc160_3224"
    INDEX 01 04:20:55
  TRACK 193 AUDIO
    TITLE "0:"
    INDEX 01 04:22:13
  TRACK 194 AUDIO
    TITLE "42:cjc160_3225"
    INDEX 01 04:22:50
  TRACK 195 AUDIO
    TITLE "0:"
    INDEX 01 04:24:10
  TRACK 196 AUDIO
    TITLE "43:cjc160_3226"
    INDEX 01 04:24:47
  TRACK 197 AUDIO
    TITLE "0:"
    INDEX 01 04:26:28
  TRACK 198 AUDIO
    TITLE "44:cjc160_3227"
    INDEX 01 04:26:67
  TRACK 199 AUDIO
    TITLE "0:"
    INDEX 01 04:28:53
  TRACK 200 AUDIO
    TITLE "45:cjc160_3228"
    INDEX 01 04:29:03
  TRACK 201 AUDIO
    TITLE "0:"
    INDEX 01 04:30:61
  TRACK 202 AUDIO
    TITLE "41:cjc160_3229"
    INDEX 01 04:31:65
  TRACK 203 AUDIO
    TITLE "0:"
    INDEX 01 04:33:73
  TRACK 204 AUDIO
    TITLE "42:cjc160_3230"
    INDEX 01 04:34:40
  TRACK 205 AUDIO
    TITLE "0:"
    INDEX 01 04:36:62
  TRACK 206 AUDIO
    TITLE "43:cjc160_3231"
    INDEX 01 04:37:30
  TRACK 207 AUDIO
    TITLE "0:"
    INDEX 01 04:41:02
  TRACK 208 AUDIO
    TITLE "44:cjc160_3232"
    INDEX 01 04:41:40
  TRACK 209 AUDIO
    TITLE "0:"
    INDEX 01 04:44:52
  TRACK 210 AUDIO
    TITLE "45:cjc160_3233"
    INDEX 01 04:45:02
  TRACK 211 AUDIO
    TITLE "0:"
    INDEX 01 04:48:14
  TRACK 212 AUDIO
    TITLE "41:cjc160_3234"
    INDEX 01 04:49:16
  TRACK 213 AUDIO
    TITLE "0:"
    INDEX 01 04:50:41
  TRACK 214 AUDIO
    TITLE "42:cjc160_3235"
    INDEX 01 04:51:03
  TRACK 215 AUDIO
    TITLE "0:"
    INDEX 01 04:52:18
  TRACK 216 AUDIO
    TITLE "43:cjc160_3236"
    INDEX 01 04:52:57
  TRACK 217 AUDIO
    TITLE "0:"
    INDEX 01 04:55:28
  TRACK 218 AUDIO
    TITLE "44:cjc160_3237"
    INDEX 01 04:55:67
  TRACK 219 AUDIO
    TITLE "0:"
    INDEX 01 04:58:20
  TRACK 220 AUDIO
    TITLE "45:cjc160_3238"
    INDEX 01 04:58:46
  TRACK 221 AUDIO
    TITLE "0:"
    INDEX 01 05:00:72
  TRACK 222 AUDIO
    TITLE "41:cjc160_3239"
    INDEX 01 05:01:72
  TRACK 223 AUDIO
    TITLE "0:"
    INDEX 01 05:03:20
  TRACK 224 AUDIO
    TITLE "42:cjc160_3240"
    INDEX 01 05:03:57
  TRACK 225 AUDIO
    TITLE "0:"
    INDEX 01 05:04:68
  TRACK 226 AUDIO
    TITLE "43:cjc160_3241"
    INDEX 01 05:05:32
  TRACK 227 AUDIO
    TITLE "0:"
    INDEX 01 05:06:59
  TRACK 228 AUDIO
    TITLE "44:cjc160_3242"
    INDEX 01 05:07:23
  TRACK 229 AUDIO
    TITLE "0:"
    INDEX 01 05:09:40
  TRACK 230 AUDIO
    TITLE "45:cjc160_3243"
    INDEX 01 05:09:67
  TRACK 231 AUDIO
    TITLE "0:"
    INDEX 01 05:12:09
  TRACK 232 AUDIO
    TITLE "41:cjc160_3244"
    INDEX 01 05:13:08
  TRACK 233 AUDIO
    TITLE "0:"
    INDEX 01 05:14:31
  TRACK 234 AUDIO
    TITLE "42:cjc160_3245"
    INDEX 01 05:14:68
  TRACK 235 AUDIO
    TITLE "0:"
    INDEX 01 05:16:05
  TRACK 236 AUDIO
    TITLE "43:cjc160_3246"
    INDEX 01 05:16:44
  TRACK 237 AUDIO
    TITLE "0:"
    INDEX 01 05:19:01
  TRACK 238 AUDIO
    TITLE "44:cjc160_3247"
    INDEX 01 05:19:40
  TRACK 239 AUDIO
    TITLE "0:"
    INDEX 01 05:22:01
  TRACK 240 AUDIO
    TITLE "45:cjc160_3248"
    INDEX 01 05:22:25
  TRACK 241 AUDIO
    TITLE "0:"
    INDEX 01 05:24:61
  TRACK 242 AUDIO
    TITLE "41:cjc160_3249"
    INDEX 01 05:25:60
  TRACK 243 AUDIO
    TITLE "0:"
    INDEX 01 05:28:08
  TRACK 244 AUDIO
    TITLE "42:cjc160_3250"
    INDEX 01 05:28:47
  TRACK 245 AUDIO
    TITLE "0:"
    INDEX 01 05:30:56
  TRACK 246 AUDIO
    TITLE "43:cjc160_3251"
    INDEX 01 05:31:16
  TRACK 247 AUDIO
    TITLE "0:"
    INDEX 01 05:34:03
  TRACK 248 AUDIO
    TITLE "44:cjc160_3252"
    INDEX 01 05:34:40
  TRACK 249 AUDIO
    TITLE "0:"
    INDEX 01 05:37:44
  TRACK 250 AUDIO
    TITLE "45:cjc160_3253"
    INDEX 01 05:37:70
  TRACK 251 AUDIO
    TITLE "0:"
    INDEX 01 05:40:74
  TRACK 252 AUDIO
    TITLE "41:cjc160_3254"
    INDEX 01 05:42:00
  TRACK 253 AUDIO
    TITLE "0:"
    INDEX 01 05:43:21
  TRACK 254 AUDIO
    TITLE "42:cjc160_3255"
    INDEX 01 05:43:60
  TRACK 255 AUDIO
    TITLE "0:"
    INDEX 01 05:45:26
  TRACK 256 AUDIO
    TITLE "43:cjc160_3256"
    INDEX 01 05:45:59
  TRACK 257 AUDIO
    TITLE "0:"
    INDEX 01 05:49:08
  TRACK 258 AUDIO
    TITLE "44:cjc160_3257"
    INDEX 01 05:49:47
  TRACK 259 AUDIO
    TITLE "0:"
    INDEX 01 05:52:24
  TRACK 260 AUDIO
    TITLE "45:cjc160_3258"
    INDEX 01 05:52:49
  TRACK 261 AUDIO
    TITLE "0:"
    INDEX 01 05:55:26
  TRACK 262 AUDIO
    TITLE "41:cjc160_3259"
    INDEX 01 05:56:28
  TRACK 263 AUDIO
    TITLE "0:"
    INDEX 01 05:57:39
  TRACK 264 AUDIO
    TITLE "42:cjc160_3260"
    INDEX 01 05:57:74
  TRACK 265 AUDIO
    TITLE "0:"
    INDEX 01 05:59:26
  TRACK 266 AUDIO
    TITLE "43:cjc160_3261"
    INDEX 01 05:59:63
  TRACK 267 AUDIO
    TITLE "0:"
    INDEX 01 06:01:72
  TRACK 268 AUDIO
    TITLE "44:cjc160_3262"
    INDEX 01 06:02:34
  TRACK 269 AUDIO
    TITLE "0:"
    INDEX 01 06:04:43
  TRACK 270 AUDIO
    TITLE "45:cjc160_3263"
    INDEX 01 06:04:68
  TRACK 271 AUDIO
    TITLE "0:"
    INDEX 01 06:07:00
  TRACK 272 AUDIO
    TITLE "41:cjc160_3264"
    INDEX 01 06:08:00
  TRACK 273 AUDIO
    TITLE "0:"
    INDEX 01 06:09:28
  TRACK 274 AUDIO
    TITLE "42:cjc160_3265"
    INDEX 01 06:09:70
  TRACK 275 AUDIO
    TITLE "0:"
    INDEX 01 06:11:27
  TRACK 276 AUDIO
    TITLE "43:cjc160_3266"
    INDEX 01 06:11:64
  TRACK 277 AUDIO
    TITLE "0:"
    INDEX 01 06:14:06
  TRACK 278 AUDIO
    TITLE "44:cjc160_3267"
    INDEX 01 06:14:43
  TRACK 279 AUDIO
    TITLE "0:"
    INDEX 01 06:16:54
  TRACK 280 AUDIO
    TITLE "45:cjc160_3268"
    INDEX 01 06:17:02
  TRACK 281 AUDIO
    TITLE "0:"
    INDEX 01 06:19:13
  TRACK 282 AUDIO
    TITLE "41:cjc160_3269"
    INDEX 01 06:20:13
  TRACK 283 AUDIO
    TITLE "0:"
    INDEX 01 06:21:35
  TRACK 284 AUDIO
    TITLE "42:cjc160_3270"
    INDEX 01 06:21:73
  TRACK 285 AUDIO
    TITLE "0:"
    INDEX 01 06:23:30
  TRACK 286 AUDIO
    TITLE "43:cjc160_3271"
    INDEX 01 06:23:72
  TRACK 287 AUDIO
    TITLE "0:"
    INDEX 01 06:25:61
  TRACK 288 AUDIO
    TITLE "44:cjc160_3272"
    INDEX 01 06:26:23
  TRACK 289 AUDIO
    TITLE "0:"
    INDEX 01 06:28:22
  TRACK 290 AUDIO
    TITLE "45:cjc160_3273"
    INDEX 01 06:28:45
  TRACK 291 AUDIO
    TITLE "0:"
    INDEX 01 06:30:42
  TRACK 292 AUDIO
    TITLE "41:cjc160_3274"
    INDEX 01 06:31:42
  TRACK 293 AUDIO
    TITLE "0:"
    INDEX 01 06:32:55
  TRACK 294 AUDIO
    TITLE "42:cjc160_3275"
    INDEX 01 06:33:17
  TRACK 295 AUDIO
    TITLE "0:"
    INDEX 01 06:34:46
  TRACK 296 AUDIO
    TITLE "43:cjc160_3276"
    INDEX 01 06:35:10
  TRACK 297 AUDIO
    TITLE "0:"
    INDEX 01 06:37:25
  TRACK 298 AUDIO
    TITLE "44:cjc160_3277"
    INDEX 01 06:37:66
  TRACK 299 AUDIO
    TITLE "0:"
    INDEX 01 06:40:29
  TRACK 300 AUDIO
    TITLE "45:cjc160_3278"
    INDEX 01 06:40:52
  TRACK 301 AUDIO
    TITLE "0:"
    INDEX 01 06:43:15
  TRACK 302 AUDIO
    TITLE "41:cjc160_3279"
    INDEX 01 06:44:15
  TRACK 303 AUDIO
    TITLE "0:"
    INDEX 01 06:45:32
  TRACK 304 AUDIO
    TITLE "42:cjc160_3280"
    INDEX 01 06:45:67
  TRACK 305 AUDIO
    TITLE "0:"
    INDEX 01 06:47:25
  TRACK 306 AUDIO
    TITLE "43:cjc160_3281"
    INDEX 01 06:47:62
  TRACK 307 AUDIO
    TITLE "0:"
    INDEX 01 06:50:00
  TRACK 308 AUDIO
    TITLE "44:cjc160_3282"
    INDEX 01 06:50:39
  TRACK 309 AUDIO
    TITLE "0:"
    INDEX 01 06:52:67
  TRACK 310 AUDIO
    TITLE "45:cjc160_3283"
    INDEX 01 06:53:18
  TRACK 311 AUDIO
    TITLE "0:"
    INDEX 01 06:55:44
  TRACK 312 AUDIO
    TITLE "41:cjc160_3284"
    INDEX 01 06:56:48
  TRACK 313 AUDIO
    TITLE "0:"
    INDEX 01 06:57:63
  TRACK 314 AUDIO
    TITLE "42:cjc160_3285"
    INDEX 01 06:58:25
  TRACK 315 AUDIO
    TITLE "0:"
    INDEX 01 07:02:03
  TRACK 316 AUDIO
    TITLE "43:cjc160_3286"
    INDEX 01 07:02:42
  TRACK 317 AUDIO
    TITLE "0:"
    INDEX 01 07:05:62
  TRACK 318 AUDIO
    TITLE "44:cjc160_3287"
    INDEX 01 07:06:30
  TRACK 319 AUDIO
    TITLE "0:"
    INDEX 01 07:08:70
  TRACK 320 AUDIO
    TITLE "45:cjc160_3288"
    INDEX 01 07:09:21
  TRACK 321 AUDIO
    TITLE "0:"
    INDEX 01 07:11:63
  TRACK 322 AUDIO
    TITLE "41:cjc160_3289"
    INDEX 01 07:12:60
  TRACK 323 AUDIO
    TITLE "0:"
    INDEX 01 07:14:00
  TRACK 324 AUDIO
    TITLE "42:cjc160_3290"
    INDEX 01 07:14:40
  TRACK 325 AUDIO
    TITLE "0:"
    INDEX 01 07:15:59
  TRACK 326 AUDIO
    TITLE "43:cjc160_3291"
    INDEX 01 07:16:23
  TRACK 327 AUDIO
    TITLE "0:"
    INDEX 01 07:17:67
  TRACK 328 AUDIO
    TITLE "44:cjc160_3292"
    INDEX 01 07:18:30
  TRACK 329 AUDIO
    TITLE "0:"
    INDEX 01 07:20:40
  TRACK 330 AUDIO
    TITLE "45:cjc160_3293"
    INDEX 01 07:20:68
  TRACK 331 AUDIO
    TITLE "0:"
    INDEX 01 07:23:01
  TRACK 332 AUDIO
    TITLE "41:cjc160_3294"
    INDEX 01 07:23:74
  TRACK 333 AUDIO
    TITLE "0:"
    INDEX 01 07:25:26
  TRACK 334 AUDIO
    TITLE "42:cjc160_3295"
    INDEX 01 07:25:63
  TRACK 335 AUDIO
    TITLE "0:"
    INDEX 01 07:27:09
  TRACK 336 AUDIO
    TITLE "43:cjc160_3296"
    INDEX 01 07:27:50
  TRACK 337 AUDIO
    TITLE "0:"
    INDEX 01 07:29:51
  TRACK 338 AUDIO
    TITLE "44:cjc160_3297"
    INDEX 01 07:30:15
  TRACK 339 AUDIO
    TITLE "0:"
    INDEX 01 07:32:47
  TRACK 340 AUDIO
    TITLE "45:cjc160_3298"
    INDEX 01 07:32:73
  TRACK 341 AUDIO
    TITLE "0:"
    INDEX 01 07:35:28
  TRACK 342 AUDIO
    TITLE "41:cjc160_3299"
    INDEX 01 07:36:31
  TRACK 343 AUDIO
    TITLE "0:"
    INDEX 01 07:37:41
  TRACK 344 AUDIO
    TITLE "42:cjc160_3300"
    INDEX 01 07:38:03
  TRACK 345 AUDIO
    TITLE "0:"
    INDEX 01 07:40:31
  TRACK 346 AUDIO
    TITLE "43:cjc160_3301"
    INDEX 01 07:40:70
  TRACK 347 AUDIO
    TITLE "0:"
    INDEX 01 07:42:61
  TRACK 348 AUDIO
    TITLE "44:cjc160_3302"
    INDEX 01 07:43:26
  TRACK 349 AUDIO
    TITLE "0:"
    INDEX 01 07:45:24
  TRACK 350 AUDIO
    TITLE "45:cjc160_3303"
    INDEX 01 07:45:48
  TRACK 351 AUDIO
    TITLE "0:"
    INDEX 01 07:47:47
  TRACK 352 AUDIO
    TITLE "41:cjc160_3304"
    INDEX 01 07:48:44
  TRACK 353 AUDIO
    TITLE "0:"
    INDEX 01 07:50:00
  TRACK 354 AUDIO
    TITLE "42:cjc160_3305"
    INDEX 01 07:50:41
  TRACK 355 AUDIO
    TITLE "0:"
    INDEX 01 07:51:70
  TRACK 356 AUDIO
    TITLE "43:cjc160_3306"
    INDEX 01 07:52:34
  TRACK 357 AUDIO
    TITLE "0:"
    INDEX 01 07:54:31
  TRACK 358 AUDIO
    TITLE "44:cjc160_3307"
    INDEX 01 07:54:70
  TRACK 359 AUDIO
    TITLE "0:"
    INDEX 01 07:57:22
  TRACK 360 AUDIO
    TITLE "45:cjc160_3308"
    INDEX 01 07:57:47
  TRACK 361 AUDIO
    TITLE "0:"
    INDEX 01 08:00:01
  TRACK 362 AUDIO
    TITLE "41:cjc160_3309"
    INDEX 01 08:01:00
  TRACK 363 AUDIO
    TITLE "0:"
    INDEX 01 08:02:74
  TRACK 364 AUDIO
    TITLE "42:cjc160_3310"
    INDEX 01 08:03:40
  TRACK 365 AUDIO
    TITLE "0:"
    INDEX 01 08:07:06
  TRACK 366 AUDIO
    TITLE "43:cjc160_3311"
    INDEX 01 08:07:46
  TRACK 367 AUDIO
    TITLE "0:"
    INDEX 01 08:10:07
  TRACK 368 AUDIO
    TITLE "44:cjc160_3312"
    INDEX 01 08:10:46
  TRACK 369 AUDIO
    TITLE "0:"
    INDEX 01 08:13:21
  TRACK 370 AUDIO
    TITLE "45:cjc160_3313"
    INDEX 01 08:13:48
  TRACK 371 AUDIO
    TITLE "0:"
    INDEX 01 08:16:25
  TRACK 372 AUDIO
    TITLE "41:cjc160_3314"
    INDEX 01 08:17:24
  TRACK 373 AUDIO
    TITLE "0:"
    INDEX 01 08:19:35
  TRACK 374 AUDIO
    TITLE "42:cjc160_3315"
    INDEX 01 08:20:01
  TRACK 375 AUDIO
    TITLE "0:"
    INDEX 01 08:24:32
  TRACK 376 AUDIO
    TITLE "43:cjc160_3316"
    INDEX 01 08:24:70
  TRACK 377 AUDIO
    TITLE "0:"
    INDEX 01 08:27:29
  TRACK 378 AUDIO
    TITLE "44:cjc160_3317"
    INDEX 01 08:27:64
  TRACK 379 AUDIO
    TITLE "0:"
    INDEX 01 08:30:21
  TRACK 380 AUDIO
    TITLE "45:cjc160_3318"
    INDEX 01 08:30:47
  TRACK 381 AUDIO
    TITLE "0:"
    INDEX 01 08:33:04
  TRACK 382 AUDIO
    TITLE "41:cjc160_3319"
    INDEX 01 08:34:05
  TRACK 383 AUDIO
    TITLE "0:"
    INDEX 01 08:35:42
  TRACK 384 AUDIO
    TITLE "42:cjc160_3320"
    INDEX 01 08:36:04
  TRACK 385 AUDIO
    TITLE "0:"
    INDEX 01 08:37:21
  TRACK 386 AUDIO
    TITLE "43:cjc160_3321"
    INDEX 01 08:37:62
  TRACK 387 AUDIO
    TITLE "0:"
    INDEX 01 08:39:71
  TRACK 388 AUDIO
    TITLE "44:cjc160_3322"
    INDEX 01 08:40:35
  TRACK 389 AUDIO
    TITLE "0:"
    INDEX 01 08:42:58
  TRACK 390 AUDIO
    TITLE "45:cjc160_3323"
    INDEX 01 08:43:08
  TRACK 391 AUDIO
    TITLE "0:"
    INDEX 01 08:45:31
  TRACK 392 AUDIO
    TITLE "41:cjc160_3324"
    INDEX 01 08:46:30
  TRACK 393 AUDIO
    TITLE "0:"
    INDEX 01 08:47:55
  TRACK 394 AUDIO
    TITLE "42:cjc160_3325"
    INDEX 01 08:48:17
  TRACK 395 AUDIO
    TITLE "0:"
    INDEX 01 08:50:02
  TRACK 396 AUDIO
    TITLE "43:cjc160_3326"
    INDEX 01 08:50:36
  TRACK 397 AUDIO
    TITLE "0:"
    INDEX 01 08:52:48
  TRACK 398 AUDIO
    TITLE "44:cjc160_3327"
    INDEX 01 08:53:12
  TRACK 399 AUDIO
    TITLE "0:"
    INDEX 01 08:55:09
  TRACK 400 AUDIO
    TITLE "45:cjc160_3328"
    INDEX 01 08:55:35
  TRACK 401 AUDIO
    TITLE "0:"
    INDEX 01 08:57:32
  TRACK 402 AUDIO
    TITLE "41:cjc160_3329"
    INDEX 01 08:58:33
  TRACK 403 AUDIO
    TITLE "0:"
    INDEX 01 08:59:54
  TRACK 404 AUDIO
    TITLE "42:cjc160_3330"
    INDEX 01 09:00:18
  TRACK 405 AUDIO
    TITLE "0:"
    INDEX 01 09:02:45
  TRACK 406 AUDIO
    TITLE "43:cjc160_3331"
    INDEX 01 09:03:21
  TRACK 407 AUDIO
    TITLE "0:"
    INDEX 01 09:05:53
  TRACK 408 AUDIO
    TITLE "44:cjc160_3332"
    INDEX 01 09:06:15
  TRACK 409 AUDIO
    TITLE "0:"
    INDEX 01 09:08:43
  TRACK 410 AUDIO
    TITLE "45:cjc160_3333"
    INDEX 01 09:08:71
  TRACK 411 AUDIO
    TITLE "0:"
    INDEX 01 09:11:24
  TRACK 412 AUDIO
    TITLE "41:cjc160_3334"
    INDEX 01 09:12:27
  TRACK 413 AUDIO
    TITLE "0:"
    INDEX 01 09:13:64
  TRACK 414 AUDIO
    TITLE "42:cjc160_3335"
    INDEX 01 09:14:28
  TRACK 415 AUDIO
    TITLE "0:"
    INDEX 01 09:15:63
  TRACK 416 AUDIO
    TITLE "43:cjc160_3336"
    INDEX 01 09:16:25
  TRACK 417 AUDIO
    TITLE "0:"
    INDEX 01 09:18:10
  TRACK 418 AUDIO
    TITLE "44:cjc160_3337"
    INDEX 01 09:18:54
  TRACK 419 AUDIO
    TITLE "0:"
    INDEX 01 09:20:54
  TRACK 420 AUDIO
    TITLE "45:cjc160_3338"
    INDEX 01 09:21:13
  TRACK 421 AUDIO
    TITLE "0:"
    INDEX 01 09:23:12
  TRACK 422 AUDIO
    TITLE "41:cjc160_3339"
    INDEX 01 09:24:13
  TRACK 423 AUDIO
    TITLE "0:"
    INDEX 01 09:25:42
  TRACK 424 AUDIO
    TITLE "42:cjc160_3340"
    INDEX 01 09:26:08
  TRACK 425 AUDIO
    TITLE "0:"
    INDEX 01 09:27:25
  TRACK 426 AUDIO
    TITLE "43:cjc160_3341"
    INDEX 01 09:27:62
  TRACK 427 AUDIO
    TITLE "0:"
    INDEX 01 09:29:61
  TRACK 428 AUDIO
    TITLE "44:cjc160_3342"
    INDEX 01 09:30:25
  TRACK 429 AUDIO
    TITLE "0:"
    INDEX 01 09:32:28
  TRACK 430 AUDIO
    TITLE "45:cjc160_3343"
    INDEX 01 09:32:58
  TRACK 431 AUDIO
    TITLE "0:"
    INDEX 01 09:34:58
  TRACK 432 AUDIO
    TITLE "41:cjc160_3344"
    INDEX 01 09:35:60
  TRACK 433 AUDIO
    TITLE "0:"
    INDEX 01 09:37:12
  TRACK 434 AUDIO
    TITLE "42:cjc160_3345"
    INDEX 01 09:37:45
  TRACK 435 AUDIO
    TITLE "0:"
    INDEX 01 09:40:14
  TRACK 436 AUDIO
    TITLE "43:cjc160_3346"
    INDEX 01 09:40:53
  TRACK 437 AUDIO
    TITLE "0:"
    INDEX 01 09:42:15
  TRACK 438 AUDIO
    TITLE "44:cjc160_3347"
    INDEX 01 09:42:56
  TRACK 439 AUDIO
    TITLE "0:"
    INDEX 01 09:44:39
  TRACK 440 AUDIO
    TITLE "45:cjc160_3348"
    INDEX 01 09:44:67
  TRACK 441 AUDIO
    TITLE "0:"
    INDEX 01 09:46:50
  TRACK 442 AUDIO
    TITLE "41:cjc160_3349"
    INDEX 01 09:47:51
  TRACK 443 AUDIO
    TITLE "0:"
    INDEX 01 09:49:05
  TRACK 444 AUDIO
    TITLE "42:cjc160_3350"
    INDEX 01 09:49:44
  TRACK 445 AUDIO
    TITLE "0:"
    INDEX 01 09:52:43
  TRACK 446 AUDIO
    TITLE "43:cjc160_3351"
    INDEX 01 09:53:05
  TRACK 447 AUDIO
    TITLE "0:"
    INDEX 01 09:55:02
  TRACK 448 AUDIO
    TITLE "44:cjc160_3352"
    INDEX 01 09:55:41
  TRACK 449 AUDIO
    TITLE "0:"
    INDEX 01 09:57:16
  TRACK 450 AUDIO
    TITLE "45:cjc160_3353"
    INDEX 01 09:57:44
  TRACK 451 AUDIO
    TITLE "0:"
    INDEX 01 09:59:19
  TRACK 452 AUDIO
    TITLE "41:cjc160_3354"
    INDEX 01 10:00:21
  TRACK 453 AUDIO
    TITLE "0:"
    INDEX 01 10:01:47
  TRACK 454 AUDIO
    TITLE "42:cjc160_3355"
    INDEX 01 10:02:10
  TRACK 455 AUDIO
    TITLE "0:"
    INDEX 01 10:03:21
  TRACK 456 AUDIO
    TITLE "43:cjc160_3356"
    INDEX 01 10:03:60
  TRACK 457 AUDIO
    TITLE "0:"
    INDEX 01 10:05:02
  TRACK 458 AUDIO
    TITLE "44:cjc160_3357"
    INDEX 01 10:05:39
  TRACK 459 AUDIO
    TITLE "0:"
    INDEX 01 10:07:38
  TRACK 460 AUDIO
    TITLE "45:cjc160_3358"
    INDEX 01 10:07:62
  TRACK 461 AUDIO
    TITLE "0:"
    INDEX 01 10:09:61
  TRACK 462 AUDIO
    TITLE "41:cjc160_3359"
    INDEX 01 10:10:60
  TRACK 463 AUDIO
    TITLE "0:"
    INDEX 01 10:12:04
  TRACK 464 AUDIO
    TITLE "42:cjc160_3360"
    INDEX 01 10:12:43
  TRACK 465 AUDIO
    TITLE "0:"
    INDEX 01 10:13:74
  TRACK 466 AUDIO
    TITLE "43:cjc160_3361"
    INDEX 01 10:14:38
  TRACK 467 AUDIO
    TITLE "0:"
    INDEX 01 10:17:27
  TRACK 468 AUDIO
    TITLE "44:cjc160_3362"
    INDEX 01 10:17:64
  TRACK 469 AUDIO
    TITLE "0:"
    INDEX 01 10:20:62
  TRACK 470 AUDIO
    TITLE "45:cjc160_3363"
    INDEX 01 10:21:15
  TRACK 471 AUDIO
    TITLE "0:"
    INDEX 01 10:24:09
  TRACK 472 AUDIO
    TITLE "41:cjc160_3364"
    INDEX 01 10:25:19
  TRACK 473 AUDIO
    TITLE "0:"
    INDEX 01 10:27:12
  TRACK 474 AUDIO
    TITLE "42:cjc160_3365"
    INDEX 01 10:27:53
  TRACK 475 AUDIO
    TITLE "0:"
    INDEX 01 10:29:50
  TRACK 476 AUDIO
    TITLE "43:cjc160_3366"
    INDEX 01 10:30:12
  TRACK 477 AUDIO
    TITLE "0:"
    INDEX 01 10:32:56
  TRACK 478 AUDIO
    TITLE "44:cjc160_3367"
    INDEX 01 10:33:20
  TRACK 479 AUDIO
    TITLE "0:"
    INDEX 01 10:35:62
  TRACK 480 AUDIO
    TITLE "45:cjc160_3368"
    INDEX 01 10:36:12
  TRACK 481 AUDIO
    TITLE "0:"
    INDEX 01 10:38:56
  TRACK 482 AUDIO
    TITLE "41:cjc160_3369"
    INDEX 01 10:39:58
  TRACK 483 AUDIO
    TITLE "0:"
    INDEX 01 10:42:11
  TRACK 484 AUDIO
    TITLE "42:cjc160_3370"
    INDEX 01 10:42:56
  TRACK 485 AUDIO
    TITLE "0:"
    INDEX 01 10:44:69
  TRACK 486 AUDIO
    TITLE "43:cjc160_3371"
    INDEX 01 10:45:33
  TRACK 487 AUDIO
    TITLE "0:"
    INDEX 01 10:47:59
  TRACK 488 AUDIO
    TITLE "44:cjc160_3372"
    INDEX 01 10:48:24
  TRACK 489 AUDIO
    TITLE "0:"
    INDEX 01 10:50:58
  TRACK 490 AUDIO
    TITLE "45:cjc160_3373"
    INDEX 01 10:51:08
  TRACK 491 AUDIO
    TITLE "0:"
    INDEX 01 10:53:42
  TRACK 492 AUDIO
    TITLE "41:cjc160_3374"
    INDEX 01 10:54:42
  TRACK 493 AUDIO
    TITLE "0:"
    INDEX 01 10:56:64
  TRACK 494 AUDIO
    TITLE "42:cjc160_3375"
    INDEX 01 10:57:26
  TRACK 495 AUDIO
    TITLE "0:"
    INDEX 01 10:59:17
  TRACK 496 AUDIO
    TITLE "43:cjc160_3376"
    INDEX 01 10:59:63
  TRACK 497 AUDIO
    TITLE "0:"
    INDEX 01 11:02:00
  TRACK 498 AUDIO
    TITLE "44:cjc160_3377"
    INDEX 01 11:02:37
  TRACK 499 AUDIO
    TITLE "0:"
    INDEX 01 11:05:02
  TRACK 500 AUDIO
    TITLE "45:cjc160_3378"
    INDEX 01 11:05:28
  TRACK 501 AUDIO
    TITLE "0:"
    INDEX 01 11:07:68
  TRACK 502 AUDIO
    TITLE "41:cjc160_3379"
    INDEX 01 11:08:67
  TRACK 503 AUDIO
    TITLE "0:"
    INDEX 01 11:10:11
  TRACK 504 AUDIO
    TITLE "42:cjc160_3380"
    INDEX 01 11:10:47
  TRACK 505 AUDIO
    TITLE "0:"
    INDEX 01 11:13:33
  TRACK 506 AUDIO
    TITLE "43:cjc160_3381"
    INDEX 01 11:13:72
  TRACK 507 AUDIO
    TITLE "0:"
    INDEX 01 11:15:50
  TRACK 508 AUDIO
    TITLE "44:cjc160_3382"
    INDEX 01 11:16:14
  TRACK 509 AUDIO
    TITLE "0:"
    INDEX 01 11:18:40
  TRACK 510 AUDIO
    TITLE "45:cjc160_3383"
    INDEX 01 11:18:66
  TRACK 511 AUDIO
    TITLE "0:"
    INDEX 01 11:21:15
  TRACK 512 AUDIO
    TITLE "41:cjc160_3384"
    INDEX 01 11:22:17
  TRACK 513 AUDIO
    TITLE "0:"
    INDEX 01 11:24:04
  TRACK 514 AUDIO
    TITLE "42:cjc160_3385"
    INDEX 01 11:24:47
  TRACK 515 AUDIO
    TITLE "0:"
    INDEX 01 11:26:57
  TRACK 516 AUDIO
    TITLE "43:cjc160_3386"
    INDEX 01 11:27:22
  TRACK 517 AUDIO
    TITLE "0:"
    INDEX 01 11:30:18
  TRACK 518 AUDIO
    TITLE "44:cjc160_3387"
    INDEX 01 11:30:59
  TRACK 519 AUDIO
    TITLE "0:"
    INDEX 01 11:33:57
  TRACK 520 AUDIO
    TITLE "45:cjc160_3388"
    INDEX 01 11:34:08
  TRACK 521 AUDIO
    TITLE "0:"
    INDEX 01 11:37:04
  TRACK 522 AUDIO
    TITLE "41:cjc160_3389"
    INDEX 01 11:38:06
  TRACK 523 AUDIO
    TITLE "0:"
    INDEX 01 11:40:22
  TRACK 524 AUDIO
    TITLE "42:cjc160_3390"
    INDEX 01 11:40:60
  TRACK 525 AUDIO
    TITLE "0:"
    INDEX 01 11:43:19
  TRACK 526 AUDIO
    TITLE "43:cjc160_3391"
    INDEX 01 11:43:58
  TRACK 527 AUDIO
    TITLE "0:"
    INDEX 01 11:46:35
  TRACK 528 AUDIO
    TITLE "44:cjc160_3392"
    INDEX 01 11:46:72
  TRACK 529 AUDIO
    TITLE "0:"
    INDEX 01 11:49:19
  TRACK 530 AUDIO
    TITLE "45:cjc160_3393"
    INDEX 01 11:49:45
  TRACK 531 AUDIO
    TITLE "0:"
    INDEX 01 11:51:67
  TRACK 532 AUDIO
    TITLE "41:cjc160_3394"
    INDEX 01 11:52:69
  TRACK 533 AUDIO
    TITLE "0:"
    INDEX 01 11:55:26
  TRACK 534 AUDIO
    TITLE "42:cjc160_3395"
    INDEX 01 11:55:63
  TRACK 535 AUDIO
    TITLE "0:"
    INDEX 01 11:58:16
  TRACK 536 AUDIO
    TITLE "43:cjc160_3396"
    INDEX 01 11:58:55
  TRACK 537 AUDIO
    TITLE "0:"
    INDEX 01 12:01:26
  TRACK 538 AUDIO
    TITLE "44:cjc160_3397"
    INDEX 01 12:01:66
  TRACK 539 AUDIO
    TITLE "0:"
    INDEX 01 12:04:09
  TRACK 540 AUDIO
    TITLE "45:cjc160_3398"
    INDEX 01 12:04:35
  TRACK 541 AUDIO
    TITLE "0:"
    INDEX 01 12:06:55
  TRACK 542 AUDIO
    TITLE "41:cjc160_3399"
    INDEX 01 12:07:54
  TRACK 543 AUDIO
    TITLE "0:"
    INDEX 01 12:10:04
  TRACK 544 AUDIO
    TITLE "42:cjc160_3400"
    INDEX 01 12:10:39
  TRACK 545 AUDIO
    TITLE "0:"
    INDEX 01 12:12:61
  TRACK 546 AUDIO
    TITLE "43:cjc160_3401"
    INDEX 01 12:13:28
  TRACK 547 AUDIO
    TITLE "0:"
    INDEX 01 12:16:71
  TRACK 548 AUDIO
    TITLE "44:cjc160_3402"
    INDEX 01 12:17:33
  TRACK 549 AUDIO
    TITLE "0:"
    INDEX 01 12:21:04
  TRACK 550 AUDIO
    TITLE "45:cjc160_3403"
    INDEX 01 12:21:29
  TRACK 551 AUDIO
    TITLE "0:"
    INDEX 01 12:25:01
